<svg width="90" height="64" viewBox="0 0 90 64" fill="none" xmlns="http://www.w3.org/2000/svg">
<path d="M38 26H53" stroke="#D8A3D3" stroke-width="2" stroke-linecap="round" stroke-linejoin="round"/>
<path d="M38 33H49" stroke="#D8A3D3" stroke-width="2" stroke-linecap="round" stroke-linejoin="round"/>
<path d="M56.5 17C57.9587 17 59.3576 17.5764 60.3891 18.6023C61.4205 19.6282 62 21.0197 62 22.4706V37.0588C62 38.5097 61.4205 39.9012 60.3891 40.9271C59.3576 41.953 57.9587 42.5294 56.5 42.5294H47.3333L38.1667 48V42.5294H34.5C33.0413 42.5294 31.6424 41.953 30.6109 40.9271C29.5795 39.9012 29 38.5097 29 37.0588V22.4706C29 21.0197 29.5795 19.6282 30.6109 18.6023C31.6424 17.5764 33.0413 17 34.5 17H56.5Z" stroke="#D8A3D3" stroke-width="2" stroke-linecap="round" stroke-linejoin="round"/>
</svg>
